<svg xmlns="http://www.w3.org/2000/svg" width="12" height="12" fill="#2b1a46" viewBox="0 0 16 16"><path d="M9.345.5c.685 0 1.042.504 1.084 1.283l.004.16v.806l4.067.001a.55.55 0 01.09 1.093l-.09.007-1.044-.001-.668 8.538c0 1.94-.75 3.081-2.217 3.163l-.172.005H5.167c-1.3 0-1.939-1.073-1.984-2.902l-.003-.223-.671-8.581L1.5 3.85a.55.55 0 01-.09-1.093l.09-.007 4.2-.001v-.808c0-.819.35-1.369 1.022-1.434L6.86.5h2.485zm2.998 3.349h-8.72l.665 8.538c0 1.402.288 1.998.796 2.054l.083.004h5.232c.826 0 1.24-.537 1.278-1.901l.003-.2.663-8.495zM9.569 5.534c.228.014.408.19.434.41l.003.085-.37 6a.467.467 0 01-.929.027l-.003-.085.37-6a.467.467 0 01.495-.437zm-3.232 0a.467.467 0 01.495.437l.37 6-.003.084a.465.465 0 01-.434.41.465.465 0 01-.495-.436l-.37-6 .002-.084a.465.465 0 01.435-.41zM9.345 1.5H6.86c-.105 0-.15.047-.158.325l-.002.116v.808h2.733v-.806c0-.344-.027-.427-.071-.44L9.345 1.5z"></path></svg>